<svg id="fi_12916350" viewBox="25 121 450 258" xmlns="http://www.w3.org/2000/svg" xmlns:xlink="http://www.w3.org/1999/xlink"><filter id="Adobe_OpacityMaskFilter" filterUnits="userSpaceOnUse" height="16.73" width="86.5" x="39.69" y="160.501"><feFlood flood-color="#fff" result="back"></feFlood><feBlend in="SourceGraphic" in2="back" mode="normal"></feBlend></filter><linearGradient id="lg1"><stop offset="0" stop-color="#52944d"></stop><stop offset="1" stop-color="#1d451b"></stop></linearGradient><linearGradient id="SVGID_1_" gradientUnits="userSpaceOnUse" x1="320.7" x2="121.061" xlink:href="#lg1" y1="144.229" y2="442.59"></linearGradient><linearGradient id="SVGID_2_" gradientUnits="userSpaceOnUse" x1="394.33" x2="65.179" xlink:href="#lg1" y1="128.542" y2="404.969"></linearGradient><linearGradient id="lg2"><stop offset="0" stop-color="#5bc29a"></stop><stop offset="1" stop-color="#153327"></stop></linearGradient><linearGradient id="SVGID_3_" gradientUnits="userSpaceOnUse" x1="250.21" x2="250.21" xlink:href="#lg2" y1="451.499" y2="310.544"></linearGradient><linearGradient id="SVGID_4_" gradientUnits="userSpaceOnUse" x1="-64.639" x2="239.756" xlink:href="#lg2" y1="367.14" y2="265.675"></linearGradient><linearGradient id="SVGID_5_" gradientUnits="userSpaceOnUse" x1="249.978" x2="250.389" xlink:href="#lg2" y1="73.618" y2="184.27"></linearGradient><linearGradient id="SVGID_6_" gradientUnits="userSpaceOnUse" x1="89.284" x2="186.36" xlink:href="#lg2" y1="248.109" y2="250.851"></linearGradient><linearGradient id="SVGID_7_" gradientUnits="userSpaceOnUse" x1="435.744" x2="310.146" xlink:href="#lg2" y1="248.555" y2="250.201"></linearGradient><linearGradient id="SVGID_8_" gradientUnits="userSpaceOnUse" x1="196.36" x2="187.382" xlink:href="#lg2" y1="262.19" y2="262.19"></linearGradient><linearGradient id="SVGID_9_" gradientUnits="userSpaceOnUse" x1="206.991" x2="198.012" xlink:href="#lg2" y1="262.19" y2="262.19"></linearGradient><linearGradient id="SVGID_10_" gradientUnits="userSpaceOnUse" x1="217.622" x2="208.643" xlink:href="#lg2" y1="262.19" y2="262.19"></linearGradient><linearGradient id="SVGID_11_" gradientUnits="userSpaceOnUse" x1="228.253" x2="219.274" xlink:href="#lg2" y1="262.19" y2="262.19"></linearGradient><linearGradient id="SVGID_12_" gradientUnits="userSpaceOnUse" x1="238.884" x2="229.905" xlink:href="#lg2" y1="262.19" y2="262.19"></linearGradient><linearGradient id="SVGID_13_" gradientUnits="userSpaceOnUse" x1="249.514" x2="240.536" xlink:href="#lg2" y1="262.19" y2="262.19"></linearGradient><linearGradient id="SVGID_14_" gradientUnits="userSpaceOnUse" x1="260.145" x2="251.167" xlink:href="#lg2" y1="262.19" y2="262.19"></linearGradient><linearGradient id="SVGID_15_" gradientUnits="userSpaceOnUse" x1="270.776" x2="261.798" xlink:href="#lg2" y1="262.19" y2="262.19"></linearGradient><linearGradient id="SVGID_16_" gradientUnits="userSpaceOnUse" x1="281.407" x2="272.429" xlink:href="#lg2" y1="262.19" y2="262.19"></linearGradient><linearGradient id="SVGID_17_" gradientUnits="userSpaceOnUse" x1="292.037" x2="283.06" xlink:href="#lg2" y1="262.19" y2="262.19"></linearGradient><linearGradient id="SVGID_18_" gradientUnits="userSpaceOnUse" x1="302.668" x2="293.69" xlink:href="#lg2" y1="262.19" y2="262.19"></linearGradient><linearGradient id="SVGID_19_" gradientUnits="userSpaceOnUse" x1="313.299" x2="304.321" xlink:href="#lg2" y1="262.19" y2="262.19"></linearGradient><linearGradient id="SVGID_20_" gradientUnits="userSpaceOnUse" x1="141.24" x2="122.369" xlink:href="#lg1" y1="120.88" y2="136.729"></linearGradient><linearGradient id="SVGID_21_" gradientUnits="userSpaceOnUse" x1="375.285" x2="356.413" xlink:href="#lg1" y1="120.88" y2="136.729"></linearGradient><linearGradient id="SVGID_22_" gradientUnits="userSpaceOnUse" x1="141.24" x2="122.369" xlink:href="#lg1" y1="365.241" y2="381.09"></linearGradient><linearGradient id="SVGID_23_" gradientUnits="userSpaceOnUse" x1="375.285" x2="356.413" xlink:href="#lg1" y1="365.241" y2="381.09"></linearGradient><linearGradient id="SVGID_24_" gradientUnits="userSpaceOnUse" x1="13.798" x2="133.91" xlink:href="#lg1" y1="124.395" y2="355.844"></linearGradient><linearGradient id="SVGID_25_" gradientUnits="userSpaceOnUse" x1="137.224" x2="47.276" xlink:href="#lg2" y1="315.629" y2="210.599"></linearGradient><linearGradient id="SVGID_28_" gradientUnits="userSpaceOnUse" x1="82.94" x2="82.94" xlink:href="#lg2" y1="177.337" y2="155.315"></linearGradient><linearGradient id="lg4"><stop offset="0" stop-color="#5bc29a"></stop><stop offset="1" stop-color="#69ffc3"></stop></linearGradient><linearGradient id="SVGID_31_" gradientTransform="matrix(-1 0 0 -1 445.714 536.477)" gradientUnits="userSpaceOnUse" x1="362.774" x2="362.774" xlink:href="#lg4" y1="354.704" y2="332.682"></linearGradient><linearGradient id="SVGID_34_" gradientUnits="userSpaceOnUse" x1="82.94" x2="82.94" xlink:href="#lg2" y1="251.199" y2="229.177"></linearGradient><linearGradient id="SVGID_37_" gradientTransform="matrix(-1 0 0 -1 445.714 536.477)" gradientUnits="userSpaceOnUse" x1="362.774" x2="362.774" xlink:href="#lg4" y1="280.842" y2="258.82"></linearGradient><linearGradient id="SVGID_40_" gradientUnits="userSpaceOnUse" x1="82.94" x2="82.94" xlink:href="#lg2" y1="325.062" y2="303.039"></linearGradient><linearGradient id="SVGID_43_" gradientTransform="matrix(-1 0 0 -1 445.714 536.477)" gradientUnits="userSpaceOnUse" x1="362.774" x2="362.774" xlink:href="#lg4" y1="206.981" y2="184.958"></linearGradient><linearGradient id="SVGID_44_" gradientTransform="matrix(-1 0 0 1 669.836 0)" gradientUnits="userSpaceOnUse" x1="183.634" x2="303.747" xlink:href="#lg1" y1="124.395" y2="355.844"></linearGradient><linearGradient id="SVGID_45_" gradientTransform="matrix(-1 0 0 1 669.836 0)" gradientUnits="userSpaceOnUse" x1="307.06" x2="217.113" xlink:href="#lg2" y1="315.629" y2="210.599"></linearGradient><linearGradient id="SVGID_48_" gradientTransform="matrix(-1 0 0 1 669.836 0)" gradientUnits="userSpaceOnUse" x1="252.777" x2="252.777" xlink:href="#lg2" y1="177.337" y2="155.315"></linearGradient><linearGradient id="SVGID_51_" gradientTransform="matrix(1 0 0 -1 224.122 536.477)" gradientUnits="userSpaceOnUse" x1="192.937" x2="192.937" xlink:href="#lg4" y1="354.704" y2="332.682"></linearGradient><linearGradient id="SVGID_54_" gradientTransform="matrix(-1 0 0 1 669.836 0)" gradientUnits="userSpaceOnUse" x1="252.777" x2="252.777" xlink:href="#lg2" y1="251.199" y2="229.177"></linearGradient><linearGradient id="SVGID_57_" gradientTransform="matrix(1 0 0 -1 224.122 536.477)" gradientUnits="userSpaceOnUse" x1="192.937" x2="192.937" xlink:href="#lg4" y1="280.842" y2="258.82"></linearGradient><linearGradient id="SVGID_60_" gradientTransform="matrix(-1 0 0 1 669.836 0)" gradientUnits="userSpaceOnUse" x1="252.777" x2="252.777" xlink:href="#lg2" y1="325.062" y2="303.039"></linearGradient><linearGradient id="SVGID_63_" gradientTransform="matrix(1 0 0 -1 224.122 536.477)" gradientUnits="userSpaceOnUse" x1="192.937" x2="192.937" xlink:href="#lg4" y1="206.981" y2="184.958"></linearGradient><g><g><g><path d="m368.14 375.242h-235.859c-1.547 0-2.8-1.254-2.8-2.8v-245.732c0-1.546 1.253-2.8 2.8-2.8h235.859c1.546 0 2.8 1.254 2.8 2.8v245.732c0 1.546-1.254 2.8-2.8 2.8z" fill="url(#SVGID_1_)"></path><path d="m358.899 365.394h-217.377c-1.425 0-2.581-1.156-2.581-2.581v-226.474c0-1.425 1.156-2.581 2.581-2.581h217.376c1.425 0 2.58 1.156 2.58 2.581v226.475c.001 1.424-1.154 2.58-2.579 2.58z" fill="url(#SVGID_2_)"></path><path d="m141.227 136.136h217.968v226.879h-217.968z" fill="url(#SVGID_3_)"></path><path d="m181.089 190.244h138.242v143.894h-138.242z" fill="url(#SVGID_4_)"></path><path d="m141.227 136.136 39.862 54.108h138.242l39.863-54.108z" fill="url(#SVGID_5_)"></path><path d="m141.227 363.016 39.862-28.879v-143.893l-39.862-54.108z" fill="url(#SVGID_6_)"></path><path d="m359.194 136.136v226.88l-39.863-28.879v-143.893l37.125-54.108z" fill="url(#SVGID_7_)"></path><g><path d="m191.741 328.523c-1.601 0-2.898-1.298-2.898-2.898v-126.869c0-1.6 1.298-2.898 2.898-2.898h.001c1.6 0 2.898 1.298 2.898 2.898v126.868c-.001 1.601-1.299 2.899-2.899 2.899z" fill="url(#SVGID_8_)" opacity=".5"></path><path d="m202.371 328.523c-1.6 0-2.898-1.298-2.898-2.898v-126.869c0-1.6 1.298-2.898 2.898-2.898 1.601 0 2.898 1.298 2.898 2.898v126.868c.001 1.601-1.297 2.899-2.898 2.899z" fill="url(#SVGID_9_)" opacity=".5"></path><path d="m213.002 328.523c-1.601 0-2.898-1.298-2.898-2.898v-126.869c0-1.6 1.297-2.898 2.898-2.898 1.601 0 2.898 1.298 2.898 2.898v126.868c.001 1.601-1.297 2.899-2.898 2.899z" fill="url(#SVGID_10_)" opacity=".5"></path><path d="m223.633 328.523c-1.601 0-2.898-1.298-2.898-2.898v-126.869c0-1.6 1.297-2.898 2.898-2.898 1.6 0 2.898 1.298 2.898 2.898v126.868c.001 1.601-1.297 2.899-2.898 2.899z" fill="url(#SVGID_11_)" opacity=".5"></path><path d="m234.264 328.523c-1.601 0-2.898-1.298-2.898-2.898v-126.869c0-1.6 1.297-2.898 2.898-2.898 1.6 0 2.898 1.298 2.898 2.898v126.868c.001 1.601-1.297 2.899-2.898 2.899z" fill="url(#SVGID_12_)" opacity=".5"></path><path d="m244.895 328.523c-1.6 0-2.898-1.298-2.898-2.898v-126.869c0-1.6 1.298-2.898 2.898-2.898 1.601 0 2.898 1.298 2.898 2.898v126.868c0 1.601-1.297 2.899-2.898 2.899z" fill="url(#SVGID_13_)" opacity=".5"></path><path d="m255.526 328.523c-1.6 0-2.898-1.298-2.898-2.898v-126.869c0-1.6 1.298-2.898 2.898-2.898 1.601 0 2.899 1.298 2.899 2.898v126.868c-.001 1.601-1.298 2.899-2.899 2.899z" fill="url(#SVGID_14_)" opacity=".5"></path><path d="m266.157 328.523c-1.601 0-2.898-1.298-2.898-2.898v-126.869c0-1.6 1.297-2.898 2.898-2.898 1.6 0 2.898 1.298 2.898 2.898v126.868c0 1.601-1.298 2.899-2.898 2.899z" fill="url(#SVGID_15_)" opacity=".5"></path><path d="m276.788 328.523c-1.601 0-2.898-1.298-2.898-2.898v-126.869c0-1.6 1.297-2.898 2.898-2.898 1.6 0 2.898 1.298 2.898 2.898v126.868c0 1.601-1.298 2.899-2.898 2.899z" fill="url(#SVGID_16_)" opacity=".5"></path><path d="m287.418 328.523c-1.6 0-2.898-1.298-2.898-2.898v-126.869c0-1.6 1.298-2.898 2.898-2.898 1.601 0 2.898 1.298 2.898 2.898v126.868c0 1.601-1.297 2.899-2.898 2.899z" fill="url(#SVGID_17_)" opacity=".5"></path><path d="m298.049 328.523c-1.6 0-2.899-1.298-2.899-2.898v-126.869c0-1.6 1.298-2.898 2.899-2.898 1.601 0 2.898 1.298 2.898 2.898v126.868c0 1.601-1.297 2.899-2.898 2.899z" fill="url(#SVGID_18_)" opacity=".5"></path><path d="m308.68 328.523c-1.601 0-2.898-1.298-2.898-2.898v-126.869c0-1.6 1.297-2.898 2.898-2.898 1.601 0 2.898 1.298 2.898 2.898v126.868c0 1.601-1.297 2.899-2.898 2.899z" fill="url(#SVGID_19_)" opacity=".5"></path></g></g><g><path d="m138.623 134.606h-11.29c-.631 0-1.142-.511-1.142-1.142v-11.29c0-.63.511-1.142 1.142-1.142h11.29c.631 0 1.142.511 1.142 1.142v11.29c-.001.631-.512 1.142-1.142 1.142z" fill="url(#SVGID_20_)"></path><path d="m137.022 127.806c0 2.367-1.918 4.285-4.285 4.285s-4.285-1.918-4.285-4.285c0-2.366 1.918-4.284 4.285-4.284s4.285 1.918 4.285 4.284z" fill="#153327"></path></g><g><path d="m372.667 134.606h-11.29c-.631 0-1.142-.511-1.142-1.142v-11.29c0-.63.511-1.142 1.142-1.142h11.29c.631 0 1.142.511 1.142 1.142v11.29c0 .631-.511 1.142-1.142 1.142z" fill="url(#SVGID_21_)"></path><path d="m371.067 127.806c0 2.367-1.918 4.285-4.285 4.285-2.366 0-4.285-1.918-4.285-4.285 0-2.366 1.919-4.284 4.285-4.284 2.367 0 4.285 1.918 4.285 4.284z" fill="#153327"></path></g><g><path d="m138.623 378.968h-11.29c-.631 0-1.142-.511-1.142-1.142v-11.29c0-.63.511-1.142 1.142-1.142h11.29c.631 0 1.142.511 1.142 1.142v11.29c-.001.631-.512 1.142-1.142 1.142z" fill="url(#SVGID_22_)"></path><path d="m137.022 372.168c0 2.366-1.918 4.284-4.285 4.284s-4.285-1.918-4.285-4.284c0-2.367 1.918-4.285 4.285-4.285s4.285 1.919 4.285 4.285z" fill="#153327"></path></g><g><path d="m372.667 378.968h-11.29c-.631 0-1.142-.511-1.142-1.142v-11.29c0-.63.511-1.142 1.142-1.142h11.29c.631 0 1.142.511 1.142 1.142v11.29c0 .631-.511 1.142-1.142 1.142z" fill="url(#SVGID_23_)"></path><path d="m371.067 372.168c0 2.366-1.918 4.284-4.285 4.284-2.366 0-4.285-1.918-4.285-4.284 0-2.367 1.919-4.285 4.285-4.285 2.367 0 4.285 1.919 4.285 4.285z" fill="#153327"></path></g></g><g><path d="m26.988 365.394h105.989v-229.258h-105.989c-1.098 0-1.988.89-1.988 1.988v225.281c0 1.098.89 1.989 1.988 1.989z" fill="url(#SVGID_24_)"></path><path d="m132.977 140.524h-101.708c-1.077 0-1.95.873-1.95 1.95v216.582c0 1.077.873 1.95 1.95 1.95h2.986v-215.585c0-1.077.873-1.949 1.95-1.949h96.773v-2.948z" fill="url(#SVGID_25_)" opacity=".3"></path><g><path d="m39.69 160.501h86.5v16.73h-86.5z" fill="url(#SVGID_28_)"></path><path d="m39.69 181.879h86.5v16.729h-86.5z" fill="url(#SVGID_31_)" opacity=".4"></path></g><g><path d="m39.69 234.363h86.5v16.73h-86.5z" fill="url(#SVGID_34_)"></path><path d="m39.69 255.741h86.5v16.729h-86.5z" fill="url(#SVGID_37_)" opacity=".4"></path></g><g><path d="m39.69 308.225h86.5v16.73h-86.5z" fill="url(#SVGID_40_)"></path><path d="m39.69 329.602h86.5v16.731h-86.5z" fill="url(#SVGID_43_)" opacity=".4"></path></g></g><g><path d="m473.012 365.394h-105.99v-229.258h105.989c1.098 0 1.988.89 1.988 1.988v225.281c.001 1.098-.889 1.989-1.987 1.989z" fill="url(#SVGID_44_)"></path><path d="m367.022 140.524h101.708c1.077 0 1.95.873 1.95 1.95v216.582c0 1.077-.873 1.95-1.95 1.95h-2.986v-215.585c0-1.077-.873-1.949-1.949-1.949h-96.773z" fill="url(#SVGID_45_)" opacity=".3"></path><g><path d="m373.809 177.231h86.5v-16.73h-86.5z" fill="url(#SVGID_48_)"></path><path d="m373.809 181.879h86.5v16.73h-86.5z" fill="url(#SVGID_51_)" opacity=".4"></path></g><g><path d="m373.809 251.093h86.5v-16.73h-86.5z" fill="url(#SVGID_54_)"></path><path d="m373.809 255.741h86.5v16.73h-86.5z" fill="url(#SVGID_57_)" opacity=".4"></path></g><g><path d="m373.809 324.955h86.5v-16.73h-86.5z" fill="url(#SVGID_60_)"></path><path d="m373.809 329.602h86.5v16.73h-86.5z" fill="url(#SVGID_63_)" opacity=".4"></path></g></g></g></svg>
