<svg id="Capa_1" enable-background="new 0 0 512.006 512.006" height="512" viewBox="0 0 512.006 512.006" width="512" xmlns="http://www.w3.org/2000/svg"><g><g><path clip-rule="evenodd" d="m72.208 231.624-8.569-46.632c-2.721-14.841-17.138-24.774-32.018-22.06l-9.524 1.761c-9.64 1.761-16.067 11.059-14.301 20.674l12.014 65.545c21.336 17.527 45.074-.722 52.398-19.288z" fill="#fe646f" fill-rule="evenodd"/></g><g><path clip-rule="evenodd" d="m10.112 172.894c14.677-2.339 28.717 7.536 31.41 22.175l7.961 43.369 13.027 5.053 9.698-11.867-8.569-46.632c-2.721-14.841-17.138-24.774-32.018-22.06l-9.524 1.761c-5.182.924-9.408 4.043-11.985 8.201z" fill="#fd4755" fill-rule="evenodd"/></g><g><path clip-rule="evenodd" d="m264.604 174.049-192.396 57.575-37.344 11.174c-6.253 1.877-11.232 4.707-15.054 8.114-20.988 18.855-6.6 55.814 26.517 51.945l21.451-2.483 44.668-5.226 54.453 25.814 117.012-10.799 141.214-11.319-34.189-162.62z" fill="#9be69d" fill-rule="evenodd"/></g><g><path clip-rule="evenodd" d="m353.767 365.023c0 18.104 14.735 32.801 32.886 32.801 18.18 0 32.886-14.697 32.886-32.801 0-15.708-11.059-28.845-25.852-32.05-2.258-.491-4.603-.751-7.035-.751-13.78 0-25.591 8.46-30.483 20.472-1.534 3.811-2.402 7.969-2.402 12.329z" fill="#554e56" fill-rule="evenodd"/></g><g><path clip-rule="evenodd" d="m50.438 349.027c-2.403-.78-4.979-1.184-7.643-1.184-13.867 0-25.07 11.174-25.07 24.976s11.203 25.005 25.07 25.005c13.838 0 25.041-11.203 25.041-25.005.001-11.145-7.294-20.587-17.398-23.792z" fill="#554e56" fill-rule="evenodd"/></g><g><path clip-rule="evenodd" d="m390.937 136.223 34.189 162.62c23.651-1.906 38.213-27.777 33.349-50.934l-9.408-44.755-7.064-33.639c-4.863-23.157-28.341-40.077-51.066-33.292z" fill="#fe646f" fill-rule="evenodd"/></g><g><path clip-rule="evenodd" d="m91.025 269.247-49.184 7.132c-12.13 1.761-23.796-7.045-30.078-13.715-7.064 19.201 7.498 43.369 34.565 40.193l21.451-2.483 44.668-5.226 54.453 25.814 1.013-1.53 14.272-7.738-1.505-11.03-59.693-28.557c-14.069-6.758-14.33-4.361-29.962-2.86z" fill="#6fd7a3" fill-rule="evenodd"/></g><g><path clip-rule="evenodd" d="m454.538 229.141c2.953 18.162-13.23 37.508-35.868 38.98l-4.834 16.747 11.29 13.975c23.651-1.906 38.213-27.777 33.349-50.934z" fill="#fd4755" fill-rule="evenodd"/></g><g><path clip-rule="evenodd" d="m326.468 275.368-30.368 13.687-12.187 21.107 141.213-11.319-6.485-30.866z" fill="#6fd7a3" fill-rule="evenodd"/></g><g><path clip-rule="evenodd" d="m198.455 274.56-30.541 44.871-14.127 20.761 49.734 6.583 56.48-17.238c7.758-6.266 15.893-12.849 23.912-19.375 28.023-22.782 54.685-44.697 58.998-48.538 7.816-7.016 4.169-19.173-6.89-18.075l-115.565 11.607c-11.029 1.127-16.298 11.03-22.001 19.404z" fill="#ffe177" fill-rule="evenodd"/></g><g><path clip-rule="evenodd" d="m199.526 214.906 138.695-41.55c12.419-3.696 19.106-9.298 11.522-24.803-26.604-60.549-145.614-39.587-170.307 50.963-3.011 12.069 5.239 19.836 20.09 15.39z" fill="#eaf6ff" fill-rule="evenodd"/></g><g><path clip-rule="evenodd" d="m219.935 333.55 15.69 5.226 24.375-9.24c7.758-6.266 15.893-12.849 23.912-19.375 15.893-12.936 31.352-25.583 42.555-34.793 8.54-7.045 14.59-12.069 16.443-13.744 7.816-7.016 4.169-19.173-6.89-18.075l-40.066 4.014c11.059-1.097 14.706 11.088 6.89 18.075-4.256 3.84-30.686 25.554-58.535 48.162-8.162 6.641-16.471 13.369-24.374 19.75z" fill="#ffd15b" fill-rule="evenodd"/></g><g><path clip-rule="evenodd" d="m260.001 329.536-106.214 10.655-10.682 15.708c-5.674 8.374 1.216 17.065 12.303 15.939l42.729-4.273c13.346-1.357 15.951-1.415 26.865-10.019 8.539-6.729 21.132-16.835 34.999-28.01z" fill="#fe646f" fill-rule="evenodd"/></g><g><path clip-rule="evenodd" d="m184.965 361.558c-7.671 6.035-23.912 9.731-23.883 9.731l37.055-3.725c13.346-1.357 15.951-1.415 26.865-10.019 8.54-6.728 21.133-16.834 34.999-28.008l-40.066 4.014c-13.838 11.202-26.459 21.308-34.97 28.007z" fill="#fd4755" fill-rule="evenodd"/></g><g><path d="m511.844 271.892-15.129-72.011 4.203-.968c4.036-.929 6.556-4.955 5.626-8.991-.93-4.037-4.957-6.554-8.991-5.626l-3.922.903-15.078-71.769c-.852-4.053-4.831-6.651-8.882-5.798-4.054.852-6.649 4.828-5.798 8.882l15.137 72.051-24.172 5.565-5.496-26.155c-2.983-14.208-11.869-26.625-24.377-34.069-11.306-6.729-24.154-8.457-36.18-4.866l-35.208 10.538c-6.249-10.841-15.663-19.458-27.563-25.123-12.829-6.105-28.273-8.694-44.649-7.479-23.049 1.706-46.284 10.725-65.425 25.395-20.362 15.605-35.001 36.678-42.552 61.13l-37.042 11.105c-3.968 1.189-6.22 5.37-5.03 9.338.974 3.25 3.954 5.348 7.181 5.348.713 0 1.438-.103 2.157-.318l31.33-9.392c.857 3.373 2.542 6.356 5.022 8.724 2.403 2.293 7.046 5.389 14.603 5.389 2.911 0 6.254-.459 10.067-1.601l138.683-41.546c6.827-2.032 15.108-5.376 18.569-13.269 1.775-4.046 1.992-8.62.653-13.839l25.694-7.69 11.174 53.092c.743 3.532 3.859 5.957 7.331 5.957.512 0 1.032-.053 1.553-.162 4.053-.854 6.647-4.831 5.794-8.884l-11.257-53.486c5.901-.283 11.906 1.249 17.423 4.532 8.782 5.227 15.275 14.297 17.368 24.263l16.472 78.393c2.2 10.477-.291 21.824-6.664 30.354-3.657 4.894-8.333 8.38-13.541 10.199l-12.563-59.721c-.854-4.054-4.833-6.647-8.884-5.795-4.054.853-6.648 4.83-5.796 8.883l12.345 58.678-108.708 8.713c20.38-16.637 37.147-30.464 40.596-33.556 6.273-5.631 8.369-14.221 5.215-21.375-2.999-6.806-9.832-10.538-17.864-9.744l-115.577 11.608c-13.336 1.362-20.136 11.636-25.6 19.892-.613.926-1.223 1.848-1.84 2.754l-27.959 41.086-48.633-23.061c-1.271-.602-2.685-.835-4.082-.673l-66.125 7.71c-16.021 1.874-25.363-7.741-27.507-18.11-1.941-9.384 1.889-22.168 19.067-27.314l68.696-20.558c3.968-1.188 6.222-5.367 5.035-9.335-1.188-3.968-5.366-6.223-9.335-5.035l-23.337 6.984-7.056-38.399c-3.474-18.95-21.749-31.546-40.759-28.083l-9.508 1.759c-6.631 1.211-12.402 4.942-16.248 10.503-3.848 5.565-5.298 12.278-4.082 18.9l11.324 61.78c-8.289 9.437-10.61 21.562-8.486 31.836 3.524 17.042 19.747 32.807 43.939 29.971l9.479-1.105-11.147 31.265c-.902-.075-1.811-.123-2.732-.123-17.959 0-32.57 14.569-32.57 32.476 0 17.923 14.611 32.505 32.57 32.505 17.943 0 32.541-14.582 32.541-32.505 0-11.696-6.229-21.965-15.549-27.684l13.503-37.872 37.887-4.418 44.576 21.131-18.859 27.714c-4.042 5.964-4.422 12.929-1.018 18.631 3.436 5.754 10.038 9.114 17.614 9.114.875 0 1.764-.045 2.663-.136l42.729-4.273c.004 0 .008-.001.012-.001l1.045-.106c13.766-1.394 17.856-2.144 29.7-11.482 12.952-10.197 35.318-28.224 57.184-45.985l26.793-2.148 34.079 39.11c-.926 3.382-1.43 6.937-1.43 10.608 0 22.222 18.117 40.301 40.386 40.301s40.386-18.079 40.386-40.301c0-17.11-10.745-31.754-25.852-37.591v-19.147l24.542-1.967c12.114-.976 23.038-7.204 30.759-17.536 8.913-11.929 12.399-27.785 9.327-42.416l-7.891-37.556 24.171-5.565 15.07 71.729c.742 3.534 3.859 5.959 7.332 5.959.511 0 1.03-.052 1.55-.162 4.054-.848 6.65-4.825 5.798-8.878zm-314.47-64.171c-5.458 1.635-8.75.933-10.009-.268-1.093-1.043-1.342-3.301-.67-6.049 13.884-50.759 59.371-76.775 95.778-79.47.089-.007.176-.01.265-.016l11.927 56.658zm147.819-46.47c-.507 1.157-2.5 2.949-9.124 4.92l-26.985 8.084-10.974-52.13c21.181 2.231 37.402 12.683 44.767 29.444.041.094.084.187.129.279 3.003 6.14 2.53 8.621 2.187 9.403zm-328.355 15.1c1.568-2.268 3.915-3.788 6.623-4.283l9.506-1.758c10.862-1.98 21.311 5.212 23.295 16.037l7.353 40.018-30.905 9.249c-2.721.815-5.226 1.798-7.548 2.907l-9.991-54.508c-.489-2.677.102-5.398 1.667-7.662zm25.958 213.973c-9.688 0-17.57-7.853-17.57-17.505 0-9.636 7.882-17.476 17.57-17.476 9.672 0 17.541 7.84 17.541 17.476 0 9.652-7.869 17.505-17.541 17.505zm161.858-111.543c.652-.958 1.299-1.935 1.949-2.917 5.191-7.844 8.766-12.65 14.603-13.246l115.556-11.606c.237-.023.459-.035.666-.035 1.052 0 1.718.303 1.983.904.427.969.137 2.684-1.507 4.159-5.344 4.791-46.646 38.582-80.899 66.26l-87.969 8.825zm15.704 72.874c-8.907 7.022-9.89 7.122-21.928 8.34l-43.78 4.38c-3.139.318-5.257-.68-5.893-1.743-.359-.602-.172-1.452.548-2.515l8.72-12.814 77.584-7.783c-5.892 4.72-11.098 8.865-15.251 12.135zm191.681 13.368c0 13.951-11.388 25.301-25.386 25.301s-25.386-11.35-25.386-25.301 11.388-25.301 25.386-25.301 25.386 11.35 25.386 25.301zm-25.852-40.289c-12.609.144-23.842 6.081-31.156 15.266l-22.816-26.185 53.972-4.326z"/><path d="m386.537 357.523c-4.143 0-7.5 3.358-7.5 7.5s3.357 7.5 7.5 7.5h.116c4.143 0 7.5-3.358 7.5-7.5s-3.357-7.5-7.5-7.5z"/></g></g></svg>