<svg id="Icons" height="512" viewBox="0 0 60 60" width="512" xmlns="http://www.w3.org/2000/svg"><rect fill="#c0daf0" height="18" rx="2" width="4" x="55" y="20"/><path d="m54 26h2a3 3 0 0 1 0 6h-2z" fill="#30649d"/><path d="m37 41a3 3 0 0 1 -6 0 2.772 2.772 0 0 1 .18-1l.82-1h4l.82 1a2.772 2.772 0 0 1 .18 1z" fill="#374156"/><path d="m50 41a3 3 0 0 1 -6 0 2.772 2.772 0 0 1 .18-1l.82-1h4l.82 1a2.772 2.772 0 0 1 .18 1z" fill="#374156"/><path d="m55 26v6l-2.38 2.38a5.54 5.54 0 0 1 -3.92 1.62h-1.7c-24 0-35.45-.58-42.58-1.64a3.985 3.985 0 0 1 -3.42-3.95v-10.87a3.534 3.534 0 0 1 6.85-1.23l2.48 6.69 4.39.98 18.28-4.98 4-.4v3.4a2.006 2.006 0 0 0 2 2z" fill="#3b7ac8"/><path d="m47 26h-8a2.006 2.006 0 0 1 -2-2v-3.4l6-.6v1z" fill="#6ddbdd"/><g fill="#30649d"><rect height="4" rx="2" width="20" x="27" y="17"/><rect height="4" rx="2" width="9" x="6" y="25"/><path d="m31.173 40a.994.994 0 0 1 -.962-1.285 4 4 0 0 1 7.578 0 .994.994 0 0 1 -.962 1.285z"/><path d="m44.173 40a.994.994 0 0 1 -.962-1.285 4 4 0 0 1 7.578 0 .994.994 0 0 1 -.962 1.285z"/></g></svg>