<svg id="a" height="512" viewBox="0 0 512 512" width="512" xmlns="http://www.w3.org/2000/svg" data-name="filled outline"><circle cx="102.81" cy="380" fill="#323232" r="16"/><circle cx="222.934" cy="380" fill="#323232" r="16"/><circle cx="466.235" cy="153.765" fill="#828282" r="37.765"/><path d="m20.887 333.612h222.758l44.644-32.687 131.466-37.281 59.118-116.512h-17.141l-52.88 65.753h-120.564l-23.472-37.368h-105.338l-18.41 18.694h-29.741l-13.807 17.247v23.704h-12.86c-13.372 0-25.484 7.888-30.892 20.118l-11.48 25.963-21.401 15.528v36.841z" fill="#466e50"/><path d="m150.148 264.359h48v69.253h-48z" fill="#325a3c"/><path d="m461.732 147.132-52.88 65.752h-120.564v88.041l131.466-37.281 59.119-116.512z" fill="#325a3c"/><g><path d="m246.016 235.161 42.272-22.277-23.472-37.367h-105.338l-18.409 18.694h-29.742l-13.807 17.247v23.703z" fill="#325a3c"/><path d="m113.122 265.878v-30.717h-28.462c-13.372 0-25.484 7.888-30.892 20.118l-11.48 25.963h55.469c8.486 0 15.364-6.879 15.364-15.364z" fill="#afb4c8"/></g><g><path d="m466.234 108c-25.235 0-45.765 20.53-45.765 45.766 0 8.374 2.323 16.578 6.616 23.682l-22.065 27.437h-112.309l-21.121-33.623c-1.464-2.331-4.022-3.745-6.774-3.745h-62.235v-22.087h178.581c4.418 0 8-3.582 8-8s-3.582-8-8-8h-373.162c-4.418 0-8 3.582-8 8s3.582 8 8 8h178.581v22.087h-27.102c-2.143 0-4.196.859-5.7 2.387l-16.06 16.308h-26.392c-2.429 0-4.727 1.104-6.245 3l-13.807 17.247c-1.136 1.419-1.755 3.183-1.755 5v15.703h-4.86c-16.527 0-31.525 9.768-38.208 24.883l-10.608 23.99-19.655 14.261c-2.074 1.506-3.302 3.913-3.302 6.476v36.841c0 4.418 3.582 8 8 8h73.923v15.765c-9.311 3.303-16 12.195-16 22.624 0 13.233 10.766 24 24 24s24-10.767 24-24c0-10.429-6.689-19.321-16-22.624v-15.765h60.141l30.078 28.6c-1.342 2.992-2.096 6.303-2.096 9.789 0 13.233 10.766 24 24 24s24-10.767 24-24c0-10.429-6.689-19.321-16-22.624v-15.765h12.711c1.7 0 3.355-.541 4.726-1.545l43.483-31.837 130.083-36.89c2.147-.608 3.942-2.086 4.952-4.076l34.507-68.006c1.605.169 3.219.273 4.839.273 25.235 0 45.766-20.53 45.766-45.765s-20.53-45.766-45.766-45.766zm-363.424 280c-4.411 0-8-3.589-8-8s3.589-8 8-8 8 3.589 8 8-3.589 8-8 8zm-41.725-129.485c4.124-9.327 13.377-15.354 23.575-15.354h20.462v22.717c0 4.061-3.304 7.364-7.364 7.364h-43.185l6.513-14.728zm129.062 67.097h-32v-53.253h32zm32.786 62.389c-4.411 0-8-3.589-8-8s3.589-8 8-8 8 3.589 8 8-3.589 8-8 8zm-8-30.624c-.991.351-1.951.768-2.877 1.241l-17.885-17.006h20.762zm199.271-100.474-117.916 33.439v-9.099c0-4.418-3.582-8-8-8s-8 3.582-8 8v15.625l-39.259 28.745h-34.881v-61.253c0-4.418-3.582-8-8-8h-48c-4.418 0-8 3.582-8 8v61.253h-113.261v-24.762l15.999-11.607h52.873c12.883 0 23.364-10.481 23.364-23.364v-22.717h13.026c4.418 0 8-3.582 8-8s-3.582-8-8-8h-28.628v-12.896l9.65-12.055h25.898c2.143 0 4.196-.859 5.7-2.387l16.06-16.308h97.565l16.53 26.315-32.887 17.33h-77.889c-4.418 0-8 3.582-8 8s3.582 8 8 8h79.868c1.3 0 2.58-.316 3.729-.923l30.543-16.095v23.228c0 4.418 3.582 8 8 8s8-3.582 8-8v-28.486h112.563c2.423 0 4.715-1.099 6.234-2.986l50.479-62.767h.278l-51.639 101.771zm55.262-73.551 16.541-32.6c1.258-2.48 1.138-5.436-.317-7.806s-4.036-3.814-6.817-3.814h-17.141c-2.423 0-4.716 1.099-6.234 2.986l-17.326 21.544c-1.113-3.159-1.703-6.506-1.703-9.896 0-16.413 13.353-29.766 29.765-29.766s29.766 13.353 29.766 29.766c0 15.32-11.636 27.97-26.534 29.586z"/><path d="m169.863 214.17h32.786c4.418 0 8-3.582 8-8s-3.582-8-8-8h-32.786c-4.418 0-8 3.582-8 8s3.582 8 8 8z"/><path d="m233.588 214.17h16c4.418 0 8-3.582 8-8s-3.582-8-8-8h-16c-4.418 0-8 3.582-8 8s3.582 8 8 8z"/></g></svg>