<svg id="Capa_1" enable-background="new 0 0 512 512" height="512" viewBox="0 0 512 512" width="512" xmlns="http://www.w3.org/2000/svg"><g><g><path d="m97.994 241.801-26.674-81.069c-2.232-8.989-9.447-8.44-.185-8.44l6.768-4.265c2.374 0 6.361-4.641 8.588-3.993 5.096 1.482 9.647 4.58 12.91 8.92l66.789 88.847z" fill="#ff656f"/></g><g><path d="m86.489 144.038c-2.228-.648-4.558-.992-6.932-.992h-15.695c-9.262 0-16.063 8.696-13.832 17.685l20.128 81.069h27.836l-20.128-81.069c-1.785-7.188 2.215-14.177 8.623-16.693z" fill="#ff4756"/></g><g><path d="m490.318 283.462-20.344-5.74c-.764-.216-1.516-.464-2.253-.745-4.604-1.752-65.994-4.748-69.02-8.673l-7.788-13.848c-8.346-10.827 7.365-17.169-6.305-17.169h-310.043c-12.119 0-24.961 9.824-24.961 21.944v6.402c0 7.25 9.331 18.214 15.318 22.303l33.072 26.853c19.527 13.336 52.227 27.083 81.526 27.083h302.717c16.438 0 29.764-13.326 29.764-29.764-.001-13.326-8.858-25.028-21.683-28.646z" fill="#dfebfa"/></g><g><path d="m65.239 283.754c-5.987-4.089-9.568-10.871-9.568-18.121v-6.402c0-12.119 9.825-21.944 21.944-21.944h-27.836c-12.119 0-21.944 9.825-21.944 21.944v6.402c0 7.25 3.581 14.032 9.568 18.121l55.125 37.647c19.527 13.336 42.623 20.47 66.27 20.47h27.836c-23.646 0-46.743-7.134-66.27-20.47z" fill="#b1dbfc"/></g><g><path d="m467.723 276.97c-4.603-1.752-8.653-4.74-11.679-8.665l-10.675-13.848c-8.346-10.827-21.242-17.169-34.912-17.169h-2.609l-4.141 15.206c0 13.518 12.628 24.477 26.146 24.477h37.87z" fill="#69d6f4"/></g><g><path d="m407.849 252.493v-15.206h-23.241v15.206c0 13.518 10.959 24.477 24.477 24.477h23.241c-13.519 0-24.477-10.959-24.477-24.477z" fill="#51c1ed"/></g><g><path d="m297.083 330.241h-76.398c-4.267 0-7.726-3.459-7.726-7.726s3.459-7.726 7.726-7.726h69.722c4.267 0 14.402 3.459 14.402 7.726s-3.458 7.726-7.726 7.726z" fill="#ff656f"/></g><g><path d="m353.95 276.908h-6.923c-4.267 0-7.726-3.459-7.726-7.726s3.459-7.726 7.726-7.726h6.923c4.267 0 7.726 3.459 7.726 7.726s-3.459 7.726-7.726 7.726z" fill="#69d6f4"/></g><g><path d="m315.503 276.908h-6.923c-4.267 0-7.726-3.459-7.726-7.726s3.459-7.726 7.726-7.726h6.923c4.267 0 7.726 3.459 7.726 7.726s-3.459 7.726-7.726 7.726z" fill="#69d6f4"/></g><g><path d="m277.057 276.908h-6.923c-4.267 0-7.726-3.459-7.726-7.726s3.459-7.726 7.726-7.726h6.923c4.267 0 7.726 3.459 7.726 7.726s-3.459 7.726-7.726 7.726z" fill="#69d6f4"/></g><g><path d="m238.611 276.908h-6.923c-4.267 0-7.726-3.459-7.726-7.726s3.459-7.726 7.726-7.726h6.923c4.267 0 7.726 3.459 7.726 7.726s-3.459 7.726-7.726 7.726z" fill="#69d6f4"/></g><g><path d="m200.164 276.908h-6.923c-4.267 0-7.726-3.459-7.726-7.726s3.459-7.726 7.726-7.726h6.923c4.267 0 7.726 3.459 7.726 7.726s-3.459 7.726-7.726 7.726z" fill="#69d6f4"/></g><g><path d="m161.718 276.908h-6.923c-4.267 0-7.726-3.459-7.726-7.726s3.459-7.726 7.726-7.726h6.923c4.267 0 7.726 3.459 7.726 7.726s-3.459 7.726-7.726 7.726z" fill="#69d6f4"/></g><g><path d="m77.591 305.279h-39.495c-6.931 0-13.104-5.619-13.104-12.55v-7.537c0-6.931 6.173-12.55 13.104-12.55h39.495c6.931 0 12.55 5.619 12.55 12.55v7.537c0 6.931-5.619 12.55-12.55 12.55z" fill="#ff656f"/></g><g><path d="m27.836 292.729v-7.537c0-6.931 5.619-12.55 12.55-12.55h-27.836c-6.931 0-12.55 5.619-12.55 12.55v7.537c0 6.931 5.619 12.55 12.55 12.55h27.835c-6.931 0-12.549-5.619-12.549-12.55z" fill="#ff4756"/></g><g><path d="m338.991 341.871-5.316-27.083h-22.685c-14.957 0-27.629 12.125-27.629 27.083 0 14.957 11.93 27.083 26.888 27.083h23.426z" fill="#8c99a5"/></g><g><path d="m286.329 341.871c0-14.957 12.125-27.083 27.083-27.083h-22.623c-14.957 0-27.083 12.125-27.083 27.083 0 14.957 12.125 27.083 27.083 27.083h22.623c-14.958 0-27.083-12.126-27.083-27.083z" fill="#76848e"/></g><g><path d="m351.101 314.788h-17.426v54.166h17.426c8.947 0 16.199-7.253 16.199-16.199v-21.767c.001-8.947-7.252-16.2-16.199-16.2z" fill="#ff656f"/></g></g></svg>