<svg id="color_line" height="512" viewBox="0 0 256 256" width="512" xmlns="http://www.w3.org/2000/svg" data-name="color line"><path d="m42.6422 149s14.0549 17.17 43.96 16.4237 72.3946-11.696 87.64-16.1752l45.557-9.9535-126.7467-2.9857z" fill="#ff9929"/><path d="m106.122 120.7137c-1.35-1.1148-27.34-25.505-54.3225 10.8329l-.948 17.9329 55.737-6.0916z" fill="#b7b7b7"/><path d="m178.399 123.784 38.645-32.916 9.423 1.673-3.863 34.59z" fill="#63692a"/><path d="m77.7817 134.2229c.0428-.0065.0864-.0151.1293-.0218a26.0283 26.0283 0 0 1 -3.616.3255c-9.4514.9263-14.6926-.8915-21.392-3.7287a116.1752 116.1752 0 0 0 -30.3418 15.0815s5.33 7.0651 55.4735 7.6856a37.6359 37.6359 0 0 0 -.253-19.3421z" fill="#63692a"/><path d="m222.9136 127.13s-70.8937-8.15-117.931-6.7206c-2.9009 3.8-15.1049 11.4911-25.8727 13.58-.21.0408-1.2854.2267-1.3282.2332a37.6359 37.6359 0 0 1 .253 19.3421l-.0005.0023c8.2906.1024 17.8032.0291 28.7227-.2819a895.8588 895.8588 0 0 0 116.7431-9.9051z" fill="#5a7a41"/><path d="m237.7491 135.2094c0-6.8259-17.3337-8.5453-17.3337-8.5453v17.0906s17.3337-1.7194 17.3337-8.5453z" fill="#ff9929"/><path d="m185.8576 138.0412-62.7307-4.3684s-20.2364-2.6631-26.7642 5.3262 65.1253 24.629 65.1253 24.629l8.3185-12.65 24.9973-5.992z" fill="#63692a"/><path d="m198.613 137.193h22.835l12.899 10.999-11.897 1z" fill="#63692a"/><path d="m240.4991 135.2093c0-6.4823-8.8164-9.3387-14.8533-10.5357l3.5542-31.8272a2.75 2.75 0 0 0 -2.2521-3.0127l-9.4228-1.6737a2.7508 2.7508 0 0 0 -2.2642.6139l-36.94 31.4635c-22.4942-1.7087-49.5567-3.1744-71.618-2.6253-4.4323-3.5807-14.1211-9.8459-26.3851-8.5037-10.6748 1.165-20.6978 7.7527-29.8078 19.5854a119.325 119.325 0 0 0 -29.5343 14.939c-.608.4286-2.1407 2.823-.6106 3.9015.7618 1.0111 4.7714 4.6165 23.8917 6.8941 5.9816 5.1316 19.8527 14.5573 42.4141 13.7444 16.4142-.4094 36.0392-3.776 52.6263-7.3446 11.7978 3.2028 21.4459 5.45 21.569 5.4786a2.4877 2.4877 0 0 0 2.92-1.1676l7.72-11.74 6.5495-1.57c11.177-1.1024 22.9669-2.4759 35.2109-4.1814l7.9475 4a5.2606 5.2606 0 0 0 1.4668.2841l11.8967-1a2.75 2.75 0 0 0 1.5539-4.8329l-3.005-2.5622c3.9999-1.7009 7.3726-4.3201 7.3726-8.3275zm-22.6591-41.4074 5.6074.9963-3.2522 29.1262c-.1683.0132-18.6976-1.8132-34.1108-3.0744zm-136.9252 20.7738c8.71-.95 15.97 2.759 20.2915 5.78-2.3079 2.0043-12.7621 9.1165-23.5909 11.2206-12.0536 1.841-18.394-1.2155-20.6666-2.0974 7.562-8.9732 15.6078-13.9909 23.966-14.9032zm-53.0229 31.0385a114.5437 114.5437 0 0 1 24.8888-11.8842c9.1337 5.0719 22.485 3.5182 22.9026 3.49a37.4858 37.4858 0 0 1 .1464 13.5666c-29.9341-.4897-42.7284-3.3254-47.9378-5.1724zm58.6416 17.0607c-13.83.351-24.1371-3.3492-31.0525-7.2121 14.4923 1.5407 60.6982.3632 65.9724.1752q3.0084.9474 6.3293 1.9309c-13.7173 2.6335-28.495 4.7878-41.2492 5.106zm82.6319-14.3709a2.7513 2.7513 0 0 0 -1.6567 1.1634l-7.26 11.0408c-4.5434-1.0887-51.1265-12.0847-61.2619-20.3124 5.0246-4.9854 18.7483-4.4526 23.7816-3.7968.0556.0075.1117.0129.1678.0172l61.8962 4.31 3.7622 2.9208zm28.2571-4.1378a2.7414 2.7414 0 0 0 -.9322-1.352l-8.9461-6.9453a2.7517 2.7517 0 0 0 -1.4956-.5715l-62.6486-4.3624c-2.6015-.3341-21.9654-2.489-29.1669 6.3239a4.4226 4.4226 0 0 0 -.7915 4.3028c.6889 2.0195 2.7729 4.6438 13.0059 8.8005.1387.0563.284.1135.4251.17-.0637.0012-.13.0027-.1939.0038-9.0022.2573-17.4867.3626-25.2769.3121a40.3459 40.3459 0 0 0 -.2766-14.4756c10.0316-2.3542 20.9091-8.8285 25.1386-13.2484 39.13-1.0427 94.6975 4.43 111.4018 6.2v5.1183h-19.0529a2.75 2.75 0 0 0 -1.2365 5.2062l7.1915 3.62q-3.6031.4682-7.1452.8976zm25.5709 2.22-12.8012-6.4437h10.2421l7.1087 6.0613zm5.298-6.9722-5.06-4.3141c-.0208-.0177-.0451-.03-.0664-.0471v-5.2428c6.0659 1.0329 11.8336 3.2716 11.8336 5.4.0005 1.4972-2.8792 3.0535-6.7072 4.2043z"/></svg>