<svg id="Capa_1" enable-background="new 0 0 512 512" height="512" viewBox="0 0 512 512" width="512" xmlns="http://www.w3.org/2000/svg"><g><g><path d="m502 152.439v74.651l-32.142 29.559s-26.628 0-75.399 0c-38.073 0-64.662 17.965-74.502 25.851-1.127-3.041-3.739-5.553-7.826-6.151l-124.269-18.224c-17.098-2.512-32.441 10.747-32.441 28.024h-18.881c-16.23 0-31.942-3.978-45.899-11.285-9.501-4.975-18.175-11.487-25.592-19.234-7.209-7.529-16.587-17.582-15.599-28.793.789-8.946 7.327-16.549 16.078-18.609l93.703-22.033 35.441-31.533c7.058-6.281 16.17-9.75 25.622-9.75h44.334c21.093 4.171 41.664 13.897 55.55 30.716 18.583 22.581 46.368 35.571 75.618 35.571h47.455l33.258-58.76z" fill="#bdd3dd"/></g><g><path d="m155.421 286.148c0-17.281 15.34-30.535 32.438-28.027l124.278 18.227c11.29 1.656 11.29 17.944 0 19.6l-124.278 18.227c-17.099 2.509-32.438-10.745-32.438-28.027z" fill="#bdd3dd"/></g><g><path d="m278.754 148.62v52.048c0 8.861-7.183 16.043-16.043 16.043h-32.49c-7.38 0-14.655-1.75-21.228-5.106l-49.762-25.41 35.443-31.537c7.056-6.278 16.172-9.747 25.617-9.747h44.336c5.055 1.028 9.76 2.274 14.127 3.709z" fill="#f9f5f3"/></g><g><path d="m29.68 253.402c-10.869 0-19.68-8.811-19.68-19.68v-6.443c0-10.869 8.811-19.68 19.68-19.68 10.869 0 19.68 8.811 19.68 19.68v6.443c0 10.869-8.811 19.68-19.68 19.68z" fill="#bdd3dd"/></g><g><circle cx="122.4" cy="372.029" fill="#9da5be" r="26.756"/></g><g><circle cx="425.235" cy="319.048" fill="#9da5be" r="22.172"/></g><g><path d="m502 142.438h-25.492c-3.603 0-6.928 1.938-8.703 5.074l-30.386 53.686h-39.878c-5.523 0-10 4.477-10 10s4.477 10 10 10h70.502c5.523 0 10-4.477 10-10s-4.477-10-10-10h-7.643l21.938-38.76h9.662v60.262l-26.041 23.949h-71.5c-33.79 0-59.304 13.131-73.228 22.524-2.315-1.403-4.97-2.327-7.645-2.719l-124.276-18.227c-18.953-2.783-37.587 9.443-42.562 27.922h-10.208c-14.317 0-28.585-3.508-41.26-10.145-8.587-4.497-16.328-10.314-23.008-17.291-4.305-4.496-10.059-10.403-12.25-16.401-2.216-6.065 1.546-12.88 7.795-14.351l90.132-21.193 46.496 23.742c7.927 4.048 16.876 6.201 25.776 6.201h32.49c14.36 0 26.043-11.683 26.043-26.043v-37.185c8.402 4.228 16.686 10.098 23.507 18.278 3.537 4.242 9.844 4.813 14.084 1.276 4.242-3.537 4.813-9.843 1.276-14.084-17.95-21.527-43.058-30.283-60.985-33.837-.654-.131-1.345-.204-2.008-.204h-44.334-.002c-11.909 0-23.367 4.36-32.265 12.276l-31.371 27.913-2.18 1.939-91.24 21.453c-1.331.313-2.621.716-3.876 1.187v-50.154c0-5.523-4.477-10-10-10s-10 4.477-10 10v49.703c-3.036-1.051-6.291-1.629-9.68-1.629-16.366 0-29.68 13.314-29.68 29.679v6.443c0 16.365 13.314 29.68 29.68 29.68 3.389 0 6.644-.579 9.68-1.629v59.631c0 5.523 4.477 10 10 10s10-4.477 10-10v-57.32c7.83 7.858 16.773 14.47 26.643 19.639 8.334 4.364 17.233 7.612 26.398 9.695v43.249c-15.421 4.368-26.757 18.562-26.757 35.363 0 20.268 16.489 36.756 36.757 36.756s36.756-16.489 36.756-36.756c0-10.846-4.725-20.607-12.222-27.341l43.86-20.836 122.792-18.01c9.725-1.426 16.583-9.104 16.978-18.814 11.199-7.942 33.578-20.379 63.894-20.379h20.776v21.826c-12.857 4.216-22.172 16.324-22.172 30.573 0 17.739 14.432 32.171 32.172 32.171 17.739 0 32.171-14.432 32.171-32.171 0-14.249-9.314-26.356-22.171-30.573v-21.826h34.623c2.507 0 4.923-.942 6.769-2.64l32.142-29.56c2.059-1.894 3.231-4.563 3.231-7.36v-74.651c0-5.523-4.477-10.001-10-10.001zm-325.193 41.504 24.512-21.81c2.302-2.048 4.895-3.69 7.673-4.889v43.133zm91.947-27.827v44.553c0 3.333-2.711 6.043-6.043 6.043h-32.49c-.41 0-.819-.023-1.228-.037v-51.764h34.61c1.749.371 3.468.773 5.151 1.205zm-239.074 87.287c-5.337 0-9.68-4.342-9.68-9.68v-6.443c0-5.337 4.342-9.68 9.68-9.68s9.68 4.342 9.68 9.68v6.443c-.001 5.338-4.343 9.68-9.68 9.68zm156.819 60.866c-.033.005-.067.009-.1.014-5.269.77-10.603-.784-14.632-4.266-4.03-3.482-6.342-8.533-6.345-13.859 0-11.023 10.109-19.737 20.99-18.139l123.627 18.13zm-49.959-8.119h10.212c1.975 7.31 6.089 13.947 11.939 19.001.457.395.923.777 1.396 1.148l-27.687 13.153v-33.391c1.379.053 2.759.089 4.14.089zm-14.14 92.637c-9.24 0-16.757-7.517-16.757-16.756 0-9.24 7.517-16.757 16.757-16.757 9.239 0 16.756 7.517 16.756 16.757.001 9.239-7.516 16.756-16.756 16.756zm302.835-57.567c-6.711 0-12.172-5.46-12.172-12.171s5.46-12.172 12.172-12.172 12.171 5.46 12.171 12.172-5.459 12.171-12.171 12.171z"/><path d="m16.487 166.636c5.523 0 10-4.477 10-10v-14.603c0-10.377 8.442-18.819 18.819-18.819h5.054c5.523 0 10-4.477 10-10s-4.477-10-10-10h-5.054c-21.405 0-38.819 17.414-38.819 38.819v14.603c0 5.523 4.477 10 10 10z"/><path d="m50.36 347.014h-5.054c-10.377 0-18.819-8.442-18.819-18.819v-14.602c0-5.523-4.477-10-10-10s-10 4.477-10 10v14.602c0 21.405 17.414 38.819 38.819 38.819h5.054c5.523 0 10-4.477 10-10s-4.477-10-10-10z"/><path d="m344.53 205.6c2.096 5.031 8.019 7.495 13.06 5.41 5.038-2.084 7.493-8.025 5.41-13.06-4.93-11.917-23.433-4.254-18.47 7.65z"/></g></g></svg>