<svg enable-background="new 0 0 512 512" viewBox="0 0 512 512" xmlns="http://www.w3.org/2000/svg" id="fi_15101444"><g id="_x31_9_x2C__ketupat_x2C__fasting_x2C__muslim_x2C__cultures_x2C__islam_x2C__decoration"><g><g><path d="m194.182 342.648v168.352l30.909-30.909 30.909 30.909 8.448-70.473c-1.55-8.88 4.183 23.966-8.448-48.404z" fill="#92f934"></path><path d="m256 392.124v118.876l30.909-30.909 30.909 30.909v-168.352z" fill="#00db3a"></path><path d="m337.961 240.545-14.991 26.067-25.985 14.919-25.118-13.683-15.867-27.303 14.63-30.806 26.355-10.169 24.336 12.73z" fill="#00db3a"></path><path d="m256 322.506-14.218 28.179-26.757 12.796v.01c-5.071-5.071-36.171-36.171-40.985-40.985l14.579-27.87 26.407-13.105 25.108 10.221z" fill="#00db3a"></path><g fill="#92f934"><path d="m215.025 199.57-14.043 27.478-26.943 13.497-26.633-14.321-14.342-26.654 40.975-40.985 27.767 14.063z"></path><path d="m225.091 1h61.818v106.533h-61.818z"></path><path d="m378.946 281.531-40.985 40.975-26.531-12.621-14.445-28.354 40.976-40.986 27.457 10.407 13.518 30.569z"></path><path d="m337.961 158.585 40.975 40.985-15.991 26.242-24.984 14.733-40.976-40.975 15.682-31.867z"></path><path d="m296.98 281.531-13.162 25.057-27.823 15.918-40.975-40.975 14.295-29.343 26.68-11.643z"></path></g><path d="m296.985 363.492-19.916 19.905c-11.629 11.629-30.497 11.642-42.139 0l-19.905-19.905v-.01l40.975-40.976 28.23 10.045 12.745 30.93z" fill="#00b85d"></path><path d="m296.975 117.61-15.63 25.366-25.345 15.609-26.685-16.433-14.29-24.542c2.036-2.037-7.374 7.378 19.905-19.916 11.632-11.632 30.507-11.632 42.139 0 2.037 2.037-7.374-7.378 19.906 19.916z" fill="#00b85d"></path><path d="m256 158.585-15.867 27.251-25.108 13.734-40.986-40.985 40.986-40.975z" fill="#00db3a"></path><path d="m174.039 240.545-15.094 25.655-25.881 15.321v.01l-19.916-19.916c-11.632-11.632-11.632-30.507 0-42.139l19.916-19.905z" fill="#00db3a"></path><path d="m296.985 199.57-40.985 40.975-29.055-15.969-11.92-25.006 40.975-40.985 24.933 7.882z" fill="#92f934"></path><path d="m215.025 281.531-40.986 40.975-40.975-40.975v-.01l40.975-40.976 24.47 12.055z" fill="#92f934"></path><path d="m256 240.545-40.975 40.986-40.986-40.986 40.986-40.975z" fill="#00db3a"></path><path d="m268.005 129.608h57.951v57.959h-57.951z" fill="#00db3a" transform="matrix(.707 -.707 .707 .707 -25.142 256.486)"></path><path d="m398.852 219.476c11.632 11.632 11.632 30.507 0 42.139l-19.905 19.916c-5.141-5.141-35.883-35.883-40.985-40.985l40.975-40.975z" fill="#00db3a"></path><path d="m337.961 322.506c-2.283 2.284 11.231-11.234-40.975 40.985-5.141-5.141-35.883-35.883-40.985-40.985l40.985-40.975z" fill="#00db3a"></path></g></g></g><g id="Layer_1"></g></svg>
